<svg width="100" height="100" viewBox="0 0 100 100" fill="none" xmlns="http://www.w3.org/2000/svg">
    <g clip-path="url(#clip0_992_9)">
        <mask id="path-1-outside-1_992_9" maskUnits="userSpaceOnUse" x="0" y="3" width="100" height="91" fill="black">
            <rect fill="white" y="3" width="100" height="91"/>
            <path d="M92.812 89H59.028L56.659 78.288H42.754L40.385 89H7.322L30.188 8.66H69.843L92.812 89ZM47.389 53.053H52.333C52.333 53.053 50.17 41.929 50.17 37.191H49.655C49.655 41.723 47.389 53.053 47.389 53.053Z"/>
        </mask>
        <path d="M92.812 89H59.028L56.659 78.288H42.754L40.385 89H7.322L30.188 8.66H69.843L92.812 89ZM47.389 53.053H52.333C52.333 53.053 50.17 41.929 50.17 37.191H49.655C49.655 41.723 47.389 53.053 47.389 53.053Z" fill="#343434"/>
        <path d="M92.812 89V94H99.4418L97.6194 87.6256L92.812 89ZM59.028 89L54.146 90.0797L55.013 94H59.028V89ZM56.659 78.288L61.541 77.2083L60.674 73.288H56.659V78.288ZM42.754 78.288V73.288H38.739L37.872 77.2083L42.754 78.288ZM40.385 89V94H44.4L45.267 90.0797L40.385 89ZM7.322 89L2.51299 87.6313L0.700351 94H7.322V89ZM30.188 8.66V3.66H26.4125L25.379 7.29128L30.188 8.66ZM69.843 8.66L74.6504 7.28558L73.6138 3.66H69.843V8.66ZM47.389 53.053L42.4861 52.0724L41.29 58.053H47.389V53.053ZM52.333 53.053V58.053H58.3989L57.2411 52.0987L52.333 53.053ZM50.17 37.191H55.17V32.191H50.17V37.191ZM49.655 37.191V32.191H44.655V37.191H49.655ZM92.812 84H59.028V94H92.812V84ZM63.91 87.9203L61.541 77.2083L51.777 79.3677L54.146 90.0797L63.91 87.9203ZM56.659 73.288H42.754V83.288H56.659V73.288ZM37.872 77.2083L35.503 87.9203L45.267 90.0797L47.636 79.3677L37.872 77.2083ZM40.385 84H7.322V94H40.385V84ZM12.131 90.3687L34.997 10.0287L25.379 7.29128L2.51299 87.6313L12.131 90.3687ZM30.188 13.66H69.843V3.66H30.188V13.66ZM65.0356 10.0344L88.0046 90.3744L97.6194 87.6256L74.6504 7.28558L65.0356 10.0344ZM47.389 58.053H52.333V48.053H47.389V58.053ZM52.333 53.053C57.2411 52.0987 57.2411 52.0988 57.2411 52.0989C57.2411 52.0989 57.2411 52.099 57.2411 52.0989C57.2411 52.0988 57.2411 52.0986 57.241 52.0982C57.2408 52.0973 57.2405 52.0958 57.2401 52.0937C57.2393 52.0894 57.2379 52.0824 57.2361 52.0729C57.2324 52.0538 57.2268 52.0245 57.2193 51.9854C57.2043 51.9073 57.182 51.7903 57.1533 51.6386C57.0961 51.3351 57.0137 50.8935 56.9146 50.3477C56.7161 49.2544 56.452 47.751 56.1885 46.1073C55.6389 42.6791 55.17 39.0993 55.17 37.191H45.17C45.17 40.0206 45.7826 44.3719 46.3145 47.6902C46.5918 49.4197 46.8684 50.9935 47.0755 52.134C47.1791 52.7051 47.2657 53.1695 47.3268 53.4929C47.3573 53.6547 47.3814 53.7812 47.3981 53.8684C47.4065 53.912 47.413 53.9457 47.4175 53.969C47.4198 53.9807 47.4215 53.9898 47.4228 53.9962C47.4234 53.9994 47.4239 54.0019 47.4242 54.0038C47.4244 54.0047 47.4246 54.0055 47.4247 54.0061C47.4247 54.0064 47.4248 54.0067 47.4248 54.0068C47.4249 54.0071 47.4249 54.0073 52.333 53.053ZM50.17 32.191H49.655V42.191H50.17V32.191ZM44.655 37.191C44.655 38.9727 44.1688 42.527 43.59 45.9995C43.3138 47.6569 43.0369 49.1803 42.8287 50.2904C42.7248 50.8447 42.6384 51.2939 42.5783 51.603C42.5483 51.7574 42.5248 51.8767 42.5091 51.9565C42.5012 51.9964 42.4953 52.0263 42.4914 52.0458C42.4895 52.0556 42.488 52.0627 42.4871 52.0672C42.4867 52.0694 42.4864 52.071 42.4862 52.0718C42.4861 52.0723 42.4861 52.0725 42.4861 52.0726C42.486 52.0727 42.4861 52.0726 42.486 52.0727C42.4861 52.0726 42.4861 52.0724 47.389 53.053C52.2919 54.0336 52.2919 54.0334 52.292 54.0331C52.292 54.0329 52.2921 54.0326 52.2922 54.0323C52.2923 54.0317 52.2924 54.031 52.2926 54.03C52.293 54.0282 52.2935 54.0256 52.2941 54.0224C52.2954 54.0159 52.2973 54.0067 52.2996 53.9949C52.3043 53.9713 52.3111 53.937 52.3198 53.8928C52.3373 53.8044 52.3625 53.6758 52.3944 53.5117C52.4583 53.1834 52.5489 52.7121 52.6574 52.1333C52.8741 50.9775 53.1637 49.3851 53.454 47.6435C54.0082 44.318 54.655 39.9413 54.655 37.191H44.655Z" fill="#F6F6F6" mask="url(#path-1-outside-1_992_9)"/>
    </g>
</svg>
